<svg xmlns="http://www.w3.org/2000/svg" xmlns:xlink="http://www.w3.org/1999/xlink" width="193" height="163.297" viewBox="0 0 193 163.297"><defs><style>.a{fill:#f93;}.b{fill:#e06b14;}.c{fill:#ea832f;}.d{fill:url(#a);}.e{fill:url(#b);}.f{fill:url(#c);}.g{fill:url(#d);}.h{fill:#2a2825;}</style><linearGradient id="a" x1="0.921" y1="0.493" x2="0.157" y2="1.061" gradientUnits="objectBoundingBox"><stop offset="0.006" stop-color="#ffa833"/><stop offset="1" stop-color="#e06b14" stop-opacity="0"/></linearGradient><linearGradient id="b" x1="0.742" y1="0.666" x2="-0.022" y2="1.234" xlink:href="#a"/><linearGradient id="c" x1="0.939" y1="0.728" x2="0.175" y2="1.296" xlink:href="#a"/><linearGradient id="d" x1="0.873" y1="0.622" x2="0.109" y2="1.19" xlink:href="#a"/></defs><g transform="translate(-296.315 -120.766)"><g transform="translate(424.236 209.342)"><g transform="translate(16.771 6.825)"><path class="a" d="M567.726,286.537l5.8,22.623-19.992,11.973-5.8-22.623Z" transform="translate(-547.734 -286.537)"/></g><g transform="translate(0 11.972)"><path class="b" d="M541.161,324.928,524.39,318.1l-5.8-22.623,16.771,6.826Z" transform="translate(-518.592 -295.48)"/></g><path class="c" d="M535.363,293.475l-16.771-6.826,19.992-11.972,16.772,6.825Z" transform="translate(-518.592 -274.677)"/><g transform="translate(0)"><path class="d" d="M555.356,281.5l-16.772-6.825-19.992,11.972,5.8,22.623,16.787,6.827,19.977-11.974Z" transform="translate(-518.592 -274.677)"/></g></g><g transform="translate(347.597 120.766)"><g transform="translate(16.771 6.825)"><path class="a" d="M434.557,132.625l5.8,22.623L420.362,167.22l-5.8-22.623Z" transform="translate(-414.565 -132.625)"/></g><g transform="translate(0 11.972)"><path class="b" d="M407.992,171.017l-16.772-6.826-5.8-22.623,16.771,6.826Z" transform="translate(-385.423 -141.568)"/></g><path class="c" d="M402.194,139.563l-16.771-6.826,19.992-11.972,16.772,6.825Z" transform="translate(-385.423 -120.766)"/><g transform="translate(0)"><path class="e" d="M422.186,127.591l-16.772-6.825-19.992,11.972,5.8,22.623,16.787,6.827,19.977-11.974Z" transform="translate(-385.423 -120.766)"/></g></g><g transform="translate(314.757 213.137)"><g transform="translate(16.771 6.825)"><path class="a" d="M377.495,293.13l5.8,22.623L363.3,327.726,357.5,305.1Z" transform="translate(-357.502 -293.13)"/></g><g transform="translate(0 11.972)"><path class="b" d="M350.929,331.522,334.158,324.7l-5.8-22.623,16.771,6.826Z" transform="translate(-328.361 -302.074)"/></g><path class="c" d="M345.132,300.069l-16.771-6.826,19.992-11.972,16.772,6.825Z" transform="translate(-328.361 -281.271)"/><g transform="translate(0)"><path class="f" d="M365.124,288.1l-16.772-6.825-19.992,11.972,5.8,22.623,16.787,6.827,19.977-11.974Z" transform="translate(-328.361 -281.271)"/></g></g><g transform="translate(365.51 183.806)"><g transform="translate(16.771 6.825)"><path class="a" d="M465.683,242.164l5.8,22.623L451.489,276.76l-5.8-22.623Z" transform="translate(-445.691 -242.164)"/></g><g transform="translate(0 11.972)"><path class="b" d="M439.118,280.556l-16.772-6.826-5.8-22.623,16.771,6.826Z" transform="translate(-416.549 -251.108)"/></g><path class="c" d="M433.32,249.1l-16.771-6.826L436.541,230.3l16.772,6.825Z" transform="translate(-416.549 -230.305)"/><g transform="translate(0)"><path class="g" d="M453.313,237.13,436.541,230.3l-19.992,11.972,5.8,22.623,16.787,6.827,19.977-11.974Z" transform="translate(-416.549 -230.305)"/></g></g><path class="h" d="M521.83,324.648a19.452,19.452,0,0,1-3.456,2.367c-2.193,1.363-5.253,3.193-8.661,5.165s-6.52,3.715-8.795,4.937a19.386,19.386,0,0,1-3.775,1.817,19.394,19.394,0,0,1,3.456-2.367c2.193-1.363,5.254-3.193,8.663-5.166s6.519-3.714,8.794-4.937A19.347,19.347,0,0,1,521.83,324.648Z" transform="translate(-85.25 -86.543)"/><path class="h" d="M540.271,324.008a.879.879,0,1,1-.878-.879A.878.878,0,0,1,540.271,324.008Z" transform="translate(-102.813 -85.903)"/><g transform="translate(331.825 267.523)"><path class="h" d="M364.528,375.78a9.378,9.378,0,0,1,1.978.983c1.236.686,3,1.7,5.151,2.971l.146.086.018.178c.184,1.848.395,3.971.624,6.279l.021.207-.161.143-6.131,5.465h0l-.25.221-.283-.174-6.931-4.269-.184-.113-.016-.208c-.176-2.319-.337-4.442-.478-6.3l-.013-.179.128-.11c1.918-1.641,3.49-2.963,4.594-3.862a9.456,9.456,0,0,1,1.787-1.322A9.495,9.495,0,0,1,363,377.393c-1.026.986-2.531,2.385-4.393,4.088.037-.093.074-.185.115-.289.185,1.851.4,3.97.626,6.284l-.2-.322,6.962,4.218-.532.048h0L371.748,386l-.14.35c-.174-2.312-.336-4.441-.475-6.292l.163.264c-2.108-1.337-3.818-2.443-4.992-3.23A9.387,9.387,0,0,1,364.528,375.78Z" transform="translate(-358.018 -375.774)"/><path class="h" d="M359.591,387.517c-.165-.186,2.136-2.492,5.139-5.151l.716-.63c-.05.128-.1.25-.148.373-.282-3.555-.333-6.3-.106-6.324s.654,2.7.994,6.246l.021.221-.17.152-.711.635C362.323,385.7,359.755,387.7,359.591,387.517Z" transform="translate(-358.682 -375.779)"/><path class="h" d="M370.278,386.681c.13-.212,1.79.567,3.709,1.74s3.369,2.3,3.24,2.507-1.79-.567-3.709-1.74S370.149,386.893,370.278,386.681Z" transform="translate(-363.219 -380.389)"/></g><g transform="translate(464.443 189.226)"><path class="h" d="M588.462,250.481a21.4,21.4,0,0,1,1.76-2.842c1.183-1.786,2.916-4.342,5.059-7.463l.1-.14.178-.006,9.563-.3.21-.007.131.169,7.666,9.818h0l.2.263-.191.271-7.118,10.087-.124.175-.209,0-9.575.153-.177,0-.1-.136c-2.315-3.047-4.184-5.538-5.462-7.278a21.626,21.626,0,0,1-1.908-2.77,21.492,21.492,0,0,1,2.213,2.533c1.37,1.668,3.321,4.1,5.7,7.092l-.28-.133,9.571-.3-.333.178,7.069-10.121c0,.177.009.352.013.535h0l-7.617-9.855.341.162-9.567.15.274-.146c-2.21,3.074-4.027,5.57-5.306,7.289A21.345,21.345,0,0,1,588.462,250.481Z" transform="translate(-588.458 -239.724)"/><path class="h" d="M605.679,267.526c-.2.152-3.382-3.616-7.116-8.417l-.885-1.144.362.172c-5.407.1-9.571.007-9.576-.22s4.149-.514,9.556-.671l.223-.006.139.178.891,1.139C603.006,263.357,605.875,267.373,605.679,267.526Z" transform="translate(-588.461 -247.159)"/><path class="h" d="M605.072,250.564c-.2-.143,1.222-2.521,3.183-5.311s3.715-4.938,3.918-4.8-1.221,2.521-3.182,5.312S605.275,250.707,605.072,250.564Z" transform="translate(-595.502 -240.033)"/></g><g transform="translate(374.538 237.414)"><path class="h" d="M432.243,335.458a9.472,9.472,0,0,1,1.325-.9c.885-.561,2.2-1.372,3.885-2.4,3.378-2.065,8.265-5.013,14.267-8.609l.148-.088.162.068,16.312,6.835.194.081.05.207L474,353.022v0l.078.323-.286.169-19.653,11.593-.183.108-.194-.083-16.268-6.972-.162-.07-.039-.168c-1.614-6.886-2.91-12.495-3.785-16.386-.438-1.945-.771-3.461-.985-4.493a9.664,9.664,0,0,1-.278-1.587,9.784,9.784,0,0,1,.474,1.54c.277,1.016.671,2.518,1.165,4.45.99,3.863,2.386,9.447,4.08,16.314l-.2-.237,16.327,6.836-.378.025,19.623-11.644-.208.492v0c-1.893-7.92-3.7-15.492-5.354-22.39l.244.288-16.253-6.972.31-.021c-6.044,3.525-10.983,6.385-14.421,8.349-1.718.982-3.062,1.74-3.98,2.244A9.591,9.591,0,0,1,432.243,335.458Z" transform="translate(-432.236 -323.456)"/><path class="h" d="M453.929,373.592a39.154,39.154,0,0,1-1.706-5.722c-.943-3.562-2.185-8.5-3.5-13.962l-.623-2.6.259.306c-4.6-1.964-8.646-3.74-11.535-5.051a31.028,31.028,0,0,1-4.574-2.262,31,31,0,0,1,4.806,1.715c2.952,1.165,7.044,2.841,11.65,4.778l.207.087.053.219.63,2.6c1.318,5.464,2.462,10.423,3.247,14.023A39.15,39.15,0,0,1,453.929,373.592Z" transform="translate(-432.241 -332.301)"/><path class="h" d="M460.539,347.727c-.126-.214,4.172-2.987,9.6-6.2s9.929-5.635,10.056-5.422-4.17,2.987-9.6,6.2S460.666,347.941,460.539,347.727Z" transform="translate(-444.25 -328.822)"/></g><path class="h" d="M388.289,169.16a22.825,22.825,0,0,1-3.767,2.547c-2.385,1.474-5.711,3.456-9.411,5.6s-7.078,4.038-9.545,5.372a22.83,22.83,0,0,1-4.085,2,22.824,22.824,0,0,1,3.766-2.547c2.385-1.474,5.711-3.457,9.413-5.6s7.077-4.037,9.543-5.37A22.8,22.8,0,0,1,388.289,169.16Z" transform="translate(-27.662 -20.539)"/><path class="h" d="M418.978,277.743a18.491,18.491,0,0,1-3.409,2.348c-2.165,1.348-5.188,3.156-8.555,5.1s-6.443,3.666-8.691,4.87a18.5,18.5,0,0,1-3.735,1.783A18.467,18.467,0,0,1,398,289.5c2.165-1.348,5.188-3.156,8.557-5.1s6.441-3.665,8.69-4.869A18.5,18.5,0,0,1,418.978,277.743Z" transform="translate(-41.716 -66.632)"/><path class="h" d="M442.966,222.533a31.792,31.792,0,0,1-1.564-5.144c-.854-3.2-1.974-7.648-3.157-12.567s-2.205-9.388-2.9-12.631a31.786,31.786,0,0,1-.946-5.292,31.819,31.819,0,0,1,1.564,5.144c.855,3.206,1.974,7.648,3.158,12.57s2.2,9.385,2.9,12.629A31.793,31.793,0,0,1,442.966,222.533Z" transform="translate(-58.606 -28.073)"/><path class="h" d="M353.046,273.348a29.846,29.846,0,0,1-1.525-4.98c-.83-3.1-1.916-7.406-3.062-12.171s-2.135-9.092-2.806-12.234a29.9,29.9,0,0,1-.906-5.128,29.841,29.841,0,0,1,1.525,4.98c.83,3.1,1.916,7.406,3.062,12.172s2.134,9.09,2.806,12.232A29.9,29.9,0,0,1,353.046,273.348Z" transform="translate(-20.55 -50.12)"/><path class="h" d="M411.691,336.177a25.347,25.347,0,0,1-4.469-1.731c-2.713-1.173-6.433-2.851-10.52-4.754s-7.766-3.673-10.41-4.994a25.344,25.344,0,0,1-4.2-2.307,25.373,25.373,0,0,1,4.469,1.731c2.713,1.173,6.434,2.852,10.521,4.755s7.765,3.672,10.409,4.993A25.388,25.388,0,0,1,411.691,336.177Z" transform="translate(-36.411 -85.585)"/><path class="h" d="M498.791,284.989a24.711,24.711,0,0,1-4.476-1.535c-2.722-1.055-6.457-2.568-10.56-4.292s-7.8-3.331-10.459-4.535a24.667,24.667,0,0,1-4.23-2.121,24.69,24.69,0,0,1,4.476,1.535c2.722,1.054,6.457,2.568,10.562,4.292s7.8,3.33,10.459,4.535A24.615,24.615,0,0,1,498.791,284.989Z" transform="translate(-73.332 -64.408)"/><path class="h" d="M469.142,271.868a.879.879,0,1,1-.879-.878A.879.879,0,0,1,469.142,271.868Z" transform="translate(-72.619 -63.77)"/><g transform="translate(379.993 143.738)"><path class="h" d="M473.123,174.681a24.726,24.726,0,0,1-4.476-1.535c-2.721-1.055-6.457-2.568-10.56-4.292s-7.8-3.331-10.459-4.536a24.611,24.611,0,0,1-4.23-2.121,24.69,24.69,0,0,1,4.476,1.535c2.721,1.054,6.457,2.568,10.562,4.292s7.8,3.33,10.459,4.535A24.617,24.617,0,0,1,473.123,174.681Z" transform="translate(-442.429 -161.32)"/><path class="h" d="M443.474,161.56a.879.879,0,1,1-.879-.878A.879.879,0,0,1,443.474,161.56Z" transform="translate(-441.716 -160.682)"/></g><path class="h" d="M449.534,248.17a.879.879,0,1,1-.879-.878A.879.879,0,0,1,449.534,248.17Z" transform="translate(-64.295 -53.71)"/><path class="h" d="M437.2,277.1a.879.879,0,1,1-.879-.878A.879.879,0,0,1,437.2,277.1Z" transform="translate(-59.06 -65.992)"/><path class="h" d="M383.125,321.752a.878.878,0,1,1-.878-.878A.878.878,0,0,1,383.125,321.752Z" transform="translate(-36.105 -84.946)"/><path class="h" d="M359.415,298.157a.878.878,0,1,1-.878-.879A.879.879,0,0,1,359.415,298.157Z" transform="translate(-26.04 -74.929)"/><path class="h" d="M408.294,169.023a.878.878,0,1,1-.878-.878A.879.879,0,0,1,408.294,169.023Z" transform="translate(-46.79 -20.112)"/><g transform="translate(296.315 150.693)"><path class="h" d="M296.321,184.771a9.6,9.6,0,0,1,1.325-.9c.885-.561,2.2-1.373,3.885-2.4,3.378-2.065,8.265-5.014,14.267-8.609l.148-.089.162.068,16.312,6.835.194.081.05.207,5.413,22.376v0l.078.323-.287.169-19.652,11.593-.184.108-.194-.083-16.268-6.973-.162-.069-.039-.168c-1.614-6.886-2.91-12.495-3.786-16.386-.437-1.945-.77-3.461-.985-4.493a9.74,9.74,0,0,1-.278-1.587,9.677,9.677,0,0,1,.474,1.54c.278,1.016.671,2.518,1.166,4.45.989,3.863,2.385,9.447,4.08,16.314l-.2-.237,16.326,6.836-.377.025,19.622-11.645-.208.492v0c-1.894-7.919-3.7-15.492-5.354-22.39l.244.288-16.254-6.972.31-.021c-6.044,3.525-10.983,6.385-14.421,8.349-1.718.982-3.062,1.74-3.979,2.244A9.536,9.536,0,0,1,296.321,184.771Z" transform="translate(-296.315 -172.768)"/><path class="h" d="M318.007,222.905a39.2,39.2,0,0,1-1.707-5.722c-.943-3.562-2.185-8.5-3.5-13.962-.213-.89-.423-1.766-.623-2.6l.26.306c-4.6-1.965-8.646-3.74-11.535-5.051a31.1,31.1,0,0,1-4.574-2.262,31.02,31.02,0,0,1,4.807,1.714c2.951,1.165,7.043,2.841,11.65,4.778l.206.086.054.219.63,2.6c1.318,5.464,2.462,10.423,3.246,14.023A39.3,39.3,0,0,1,318.007,222.905Z" transform="translate(-296.319 -181.613)"/><path class="h" d="M324.618,197.04c-.127-.214,4.171-2.988,9.6-6.2s9.929-5.636,10.056-5.422-4.17,2.987-9.6,6.2S324.745,197.254,324.618,197.04Z" transform="translate(-308.328 -178.134)"/></g><g transform="translate(410.71 145.29)"><path class="h" d="M495.1,175.382a9.66,9.66,0,0,1,1.326-.9c.885-.561,2.2-1.371,3.885-2.4,3.378-2.065,8.264-5.013,14.267-8.609l.148-.089.162.068,16.313,6.834.194.081.049.207,5.413,22.375v0l.077.323-.286.169-19.653,11.593-.183.108-.194-.083-16.269-6.973-.162-.069-.039-.169c-1.614-6.886-2.91-12.494-3.786-16.385-.437-1.945-.77-3.461-.985-4.493a9.663,9.663,0,0,1-.278-1.587,9.666,9.666,0,0,1,.474,1.54c.278,1.016.67,2.518,1.166,4.45.989,3.863,2.385,9.447,4.079,16.314l-.2-.237,16.326,6.836-.377.025,19.622-11.644-.208.492v0c-1.893-7.92-3.7-15.492-5.353-22.39l.244.288-16.254-6.972.31-.021c-6.044,3.525-10.983,6.385-14.42,8.349-1.719.982-3.062,1.74-3.98,2.244A9.555,9.555,0,0,1,495.1,175.382Z" transform="translate(-495.091 -163.379)"/><path class="h" d="M516.783,213.516a39.14,39.14,0,0,1-1.707-5.722c-.943-3.562-2.185-8.5-3.5-13.961-.213-.89-.423-1.767-.623-2.6l.259.306c-4.6-1.964-8.645-3.74-11.534-5.051a31.1,31.1,0,0,1-4.574-2.262,30.95,30.95,0,0,1,4.807,1.714c2.951,1.165,7.043,2.841,11.65,4.778l.206.086.054.219.63,2.6c1.318,5.463,2.462,10.422,3.246,14.023A39.125,39.125,0,0,1,516.783,213.516Z" transform="translate(-495.095 -172.224)"/><path class="h" d="M523.393,187.65c-.127-.214,4.171-2.987,9.6-6.2s9.929-5.635,10.055-5.422-4.17,2.987-9.6,6.2S523.52,187.865,523.393,187.65Z" transform="translate(-507.104 -168.745)"/></g><path class="h" d="M545.92,265.707a26.805,26.805,0,0,1-1.46-4.714c-.791-2.939-1.822-7.014-2.907-11.527s-2.02-8.614-2.652-11.591a26.846,26.846,0,0,1-.842-4.862,26.788,26.788,0,0,1,1.46,4.713c.791,2.939,1.822,7.014,2.907,11.529s2.019,8.611,2.651,11.588A26.809,26.809,0,0,1,545.92,265.707Z" transform="translate(-102.61 -47.649)"/><path class="h" d="M551.967,289.174a.879.879,0,1,1-.878-.879A.878.878,0,0,1,551.967,289.174Z" transform="translate(-107.778 -71.116)"/></g></svg>