<svg xmlns="http://www.w3.org/2000/svg" xmlns:xlink="http://www.w3.org/1999/xlink" width="663" height="496.478" viewBox="0 0 663 496.478"><defs><style>.a,.b{fill:#fff;}.a{stroke:#2a2825;}.c{fill:#e6e6e6;}.d{fill:#f93;}.e{fill:#b2b2b2;}.f{fill:#ffc387;}.g{fill:#2a2825;}.h{stroke:none;}.i{fill:none;}.j{filter:url(#e);}.k{filter:url(#c);}.l{filter:url(#a);}</style><filter id="a" x="232" y="268" width="289" height="97" filterUnits="userSpaceOnUse"><feOffset dy="3" input="SourceAlpha"/><feGaussianBlur stdDeviation="4" result="b"/><feFlood flood-opacity="0.129"/><feComposite operator="in" in2="b"/><feComposite in="SourceGraphic"/></filter><filter id="c" x="0" y="129" width="290" height="97" filterUnits="userSpaceOnUse"><feOffset dy="3" input="SourceAlpha"/><feGaussianBlur stdDeviation="4" result="d"/><feFlood flood-opacity="0.129"/><feComposite operator="in" in2="d"/><feComposite in="SourceGraphic"/></filter><filter id="e" x="329" y="0" width="290" height="97" filterUnits="userSpaceOnUse"><feOffset dy="3" input="SourceAlpha"/><feGaussianBlur stdDeviation="4" result="f"/><feFlood flood-opacity="0.129"/><feComposite operator="in" in2="f"/><feComposite in="SourceGraphic"/></filter></defs><g transform="translate(-903 -183.511)"><g transform="translate(26 -152.489)"><g class="l" transform="matrix(1, 0, 0, 1, 877, 336)"><g class="a" transform="translate(244 277)"><rect class="h" width="265" height="73" rx="8"/><rect class="i" x="0.5" y="0.5" width="264" height="72" rx="7.5"/></g></g><g class="k" transform="matrix(1, 0, 0, 1, 877, 336)"><rect class="b" width="266" height="73" rx="8" transform="translate(12 138)"/></g><g class="j" transform="matrix(1, 0, 0, 1, 877, 336)"><rect class="b" width="266" height="73" rx="8" transform="translate(341 9)"/></g><circle class="c" cx="6.466" cy="6.466" r="6.466" transform="translate(1048.375 341.5)"/><circle class="c" cx="6.466" cy="6.466" r="6.466" transform="translate(1081.105 341.5)"/><circle class="c" cx="6.466" cy="6.466" r="6.466" transform="translate(1113.834 341.5)"/><circle class="c" cx="6.466" cy="6.466" r="6.466" transform="translate(1146.563 341.5)"/><circle class="c" cx="6.466" cy="6.466" r="6.466" transform="translate(1179.293 341.5)"/><circle class="c" cx="6.466" cy="6.466" r="6.466" transform="translate(1048.375 374.64)"/><circle class="c" cx="6.466" cy="6.466" r="6.466" transform="translate(1081.105 374.64)"/><circle class="c" cx="6.466" cy="6.466" r="6.466" transform="translate(1113.834 374.64)"/><circle class="d" cx="6.466" cy="6.466" r="6.466" transform="translate(1146.563 374.64)"/><circle class="c" cx="6.466" cy="6.466" r="6.466" transform="translate(1179.293 374.64)"/><circle class="c" cx="6.466" cy="6.466" r="6.466" transform="translate(1244.751 374.64)"/><circle class="c" cx="6.466" cy="6.466" r="6.466" transform="translate(1048.375 407.78)"/><circle class="c" cx="6.466" cy="6.466" r="6.466" transform="translate(1081.105 407.78)"/><circle class="c" cx="6.466" cy="6.466" r="6.466" transform="translate(1113.834 407.78)"/><circle class="c" cx="6.466" cy="6.466" r="6.466" transform="translate(1146.563 407.78)"/><circle class="c" cx="6.466" cy="6.466" r="6.466" transform="translate(1179.293 407.78)"/><circle class="c" cx="6.466" cy="6.466" r="6.466" transform="translate(1048.375 440.92)"/><circle class="c" cx="6.466" cy="6.466" r="6.466" transform="translate(1081.105 440.92)"/><circle class="c" cx="6.466" cy="6.466" r="6.466" transform="translate(1113.834 440.92)"/><circle class="c" cx="6.466" cy="6.466" r="6.466" transform="translate(1146.563 440.92)"/><circle class="c" cx="6.466" cy="6.466" r="6.466" transform="translate(1179.293 440.92)"/><circle class="c" cx="6.466" cy="6.466" r="6.466" transform="translate(1212.022 440.92)"/><circle class="c" cx="6.466" cy="6.466" r="6.466" transform="translate(1244.751 440.92)"/><circle class="c" cx="6.466" cy="6.466" r="6.466" transform="translate(1277.481 440.92)"/><circle class="c" cx="6.466" cy="6.466" r="6.466" transform="translate(1310.21 440.92)"/><circle class="c" cx="6.466" cy="6.466" r="6.466" transform="translate(1342.939 440.92)"/><circle class="c" cx="6.466" cy="6.466" r="6.466" transform="translate(1179.293 474.061)"/><circle class="d" cx="6.466" cy="6.466" r="6.466" transform="translate(1212.022 474.061)"/><circle class="c" cx="6.466" cy="6.466" r="6.466" transform="translate(1244.751 474.061)"/><circle class="c" cx="6.466" cy="6.466" r="6.466" transform="translate(1277.481 474.061)"/><circle class="c" cx="6.466" cy="6.466" r="6.466" transform="translate(1310.21 474.061)"/><circle class="c" cx="6.466" cy="6.466" r="6.466" transform="translate(1342.939 474.061)"/><circle class="c" cx="6.466" cy="6.466" r="6.466" transform="translate(1179.293 507.201)"/><circle class="c" cx="6.466" cy="6.466" r="6.466" transform="translate(1212.022 507.201)"/><circle class="c" cx="6.466" cy="6.466" r="6.466" transform="translate(1244.751 507.201)"/><circle class="c" cx="6.466" cy="6.466" r="6.466" transform="translate(1277.481 507.201)"/><circle class="d" cx="6.466" cy="6.466" r="6.466" transform="translate(1310.21 507.201)"/><circle class="c" cx="6.466" cy="6.466" r="6.466" transform="translate(1342.939 507.201)"/><circle class="c" cx="6.466" cy="6.466" r="6.466" transform="translate(1179.293 540.341)"/><circle class="c" cx="6.466" cy="6.466" r="6.466" transform="translate(1212.022 540.341)"/><circle class="c" cx="6.466" cy="6.466" r="6.466" transform="translate(1244.751 540.341)"/><circle class="c" cx="6.466" cy="6.466" r="6.466" transform="translate(1277.481 540.341)"/><circle class="c" cx="6.466" cy="6.466" r="6.466" transform="translate(1310.21 540.341)"/><circle class="c" cx="6.466" cy="6.466" r="6.466" transform="translate(1342.939 540.341)"/><circle class="c" cx="6.466" cy="6.466" r="6.466" transform="translate(1048.375 573.482)"/><circle class="c" cx="6.466" cy="6.466" r="6.466" transform="translate(1081.105 573.482)"/><circle class="c" cx="6.466" cy="6.466" r="6.466" transform="translate(1113.834 573.482)"/><circle class="c" cx="6.466" cy="6.466" r="6.466" transform="translate(1146.563 573.482)"/><circle class="c" cx="6.466" cy="6.466" r="6.466" transform="translate(1179.293 573.482)"/><circle class="c" cx="6.466" cy="6.466" r="6.466" transform="translate(1212.022 573.482)"/><circle class="c" cx="6.466" cy="6.466" r="6.466" transform="translate(1244.751 573.482)"/><circle class="c" cx="6.466" cy="6.466" r="6.466" transform="translate(1277.481 573.482)"/><circle class="c" cx="6.466" cy="6.466" r="6.466" transform="translate(1310.21 573.482)"/><circle class="c" cx="6.466" cy="6.466" r="6.466" transform="translate(1342.939 573.482)"/><circle class="c" cx="6.466" cy="6.466" r="6.466" transform="translate(1048.372 606.621)"/><circle class="c" cx="6.466" cy="6.466" r="6.466" transform="translate(1081.105 606.622)"/><circle class="c" cx="6.466" cy="6.466" r="6.466" transform="translate(1048.372 639.761)"/><circle class="c" cx="6.466" cy="6.466" r="6.466" transform="translate(1081.105 639.762)"/><circle class="c" cx="6.466" cy="6.466" r="6.466" transform="translate(1146.563 639.762)"/><circle class="d" cx="19.929" cy="19.929" r="19.929" transform="translate(1236.327 361.33)"/><path class="c" d="M650.615,215.708a3.321,3.321,0,1,0,0,6.643h88.255a3.321,3.321,0,1,0,0-6.643Z" transform="translate(651.665 152.264)"/><path class="c" d="M650.615,236.708a3.321,3.321,0,1,0,0,6.643H807.2a3.321,3.321,0,1,0,0-6.643Z" transform="translate(651.665 151.193)"/><circle class="d" cx="19.929" cy="19.929" r="19.929" transform="translate(907.031 490.391)"/><path class="c" d="M303.615,351.708a3.321,3.321,0,0,0,0,6.643h92.051a3.321,3.321,0,1,0,0-6.643Z" transform="translate(669.369 145.325)"/><path class="c" d="M303.615,372.708a3.321,3.321,0,0,0,0,6.643H460.2a3.321,3.321,0,0,0,0-6.643Z" transform="translate(669.369 144.254)"/><circle class="d" cx="19.929" cy="19.929" r="19.929" transform="translate(1138.582 629.891)"/><path class="c" d="M547.615,498.708a3.321,3.321,0,0,0,0,6.643h84.459a3.321,3.321,0,1,0,0-6.643Z" transform="translate(656.92 137.825)"/><path class="c" d="M547.615,519.708a3.321,3.321,0,0,0,0,6.643H704.2a3.321,3.321,0,0,0,0-6.643Z" transform="translate(656.92 136.754)"/><path class="e" d="M876.5,526.935c-11.128,33.383-56.649-2.023-56.649-2.023l12.139-126.449c18.209-14.162,37.429-2.023,37.429-2.023Z" transform="translate(614.392 136.647)"/><path class="f" d="M661.731,464.458l15.511.163-3.875,44.711H661.733Z" transform="translate(826.769 311.16)"/><path class="g" d="M873.9,695.555h22.912a14.618,14.618,0,0,1,14.6,14.6v.474H873.9Z" transform="translate(611.634 121.139)"/><path class="f" d="M616.5,464.458H599.327l5.534,44.875H616.5Z" transform="translate(829.953 311.16)"/><path class="g" d="M796.309,710.63v-.474a14.6,14.6,0,0,1,14.6-14.6h22.913v15.077Z" transform="translate(615.593 121.139)"/><path class="d" d="M872.518,682.61,852.2,564.156,833.37,681.083l-19.075,1.06L809.209,525.48l.383-.086c3.154-.706,77.377-17.008,89.544,6.313l.062.118L889.043,683.144Z" transform="translate(614.935 130.137)"/><circle class="f" cx="23.308" cy="23.308" r="23.308" transform="translate(1442.609 473.676)"/><path class="g" d="M872.873,536.9c-2.732-.757-4.7-3.894-6.2-9.874-.258-1.031-24.457-104.114-3.992-122.79l4.717-13.1,6.456,4.3c2.284.021,25.642.613,27.638,15.585,1.954,14.655,7.274,112.846,1.927,118.954a1.156,1.156,0,0,1-.88.445c-5.419,0-7.064-6.013-7.451-7.93-1.289.534-5.126,2.495-11.434,8.8-3.907,3.907-6.97,5.78-9.5,5.78a4.783,4.783,0,0,1-1.284-.171Z" transform="translate(612.625 136.671)"/><path class="g" d="M819.374,531.293c-6.309-6.309-10.148-8.27-11.434-8.8-.386,1.917-2.032,7.93-7.451,7.93a1.156,1.156,0,0,1-.88-.445c-5.347-6.107-.027-104.3,1.927-118.954,2-14.972,25.354-15.564,27.639-15.585l6.456-4.3,4.717,13.1c20.463,18.675-3.735,121.759-3.992,122.79-1.5,5.98-3.464,9.118-6.2,9.874a4.778,4.778,0,0,1-1.284.172C826.345,537.072,823.281,535.2,819.374,531.293Z" transform="translate(615.543 136.671)"/><path class="g" d="M870.872,369.965a23.919,23.919,0,0,0-11.585-43.217c-2.146-.215-4.457-.183-6.236-1.4-1.58-1.083-2.432-2.96-3.884-4.209a8.473,8.473,0,0,0-6.573-1.657,23.782,23.782,0,0,0-6.607,2.171c-5.168,2.3-10.662,5.14-13.014,10.287a14.193,14.193,0,0,0,1.746,13.919,19.368,19.368,0,0,0,12.352,7.294,30.874,30.874,0,0,0,14.505-1.306c3.076-.968,6.113-2.287,9.336-2.395a12.687,12.687,0,0,1,9.628,21.413" transform="translate(614.289 140.333)"/><path class="f" d="M739.072,516.48A10.25,10.25,0,0,0,749.082,506l13.592-22.933-10.5-9.628-14.318,22.6a10.25,10.25,0,0,0,1.218,20.45Z" transform="translate(619.048 132.472)"/><path class="f" d="M904.956,542.931a10.25,10.25,0,0,0,2.989-14.184l-.52-26.654-14-2.655-.274,26.749a10.25,10.25,0,0,0,11.8,16.744Z" transform="translate(610.858 131.145)"/><path class="g" d="M743.984,475.918l-.159-.252.157-.252c20.387-32.739,63.182-73.635,63.612-74.044l.135-.129,5.286-.054,5.714,14.235c-1.779,3.422-49.722,70.329-56.053,74.766a4.368,4.368,0,0,1-3.5.659,9.2,9.2,0,0,1-2.965-1.263C750.373,485.966,744.283,476.392,743.984,475.918Z" transform="translate(618.271 136.158)"/><path class="g" d="M890.689,513.712a4.338,4.338,0,0,1-2.569-2.358c-3.052-7.122,10.03-97.082,10.588-100.909l.106-.724,4.423,2.8.043.191c.131.575,13.013,57.885,9.521,95.966l-.025.272-.248.115c-.532.247-11.262,5.174-18.414,5.174A9.671,9.671,0,0,1,890.689,513.712Z" transform="translate(610.932 135.723)"/><path class="g" d="M875.54,712.085H717.3c-.329,0-.595-.425-.595-.949s.266-.949.595-.949H875.54c.329,0,.595.425.595.949S875.868,712.085,875.54,712.085Z" transform="translate(663.865 120.393)"/></g></g></svg>