<svg xmlns="http://www.w3.org/2000/svg" width="40" height="40" viewBox="0 0 40 40"><defs><style>.a{fill:#fff;stroke:#b2b2b2;stroke-width:1.1px;}.b{fill:#b2b2b2;}.c{stroke:none;}.d{fill:none;}</style></defs><g transform="translate(-1360 -865)"><g class="a" transform="translate(1360 865)"><circle class="c" cx="20" cy="20" r="20"/><circle class="d" cx="20" cy="20" r="19.45"/></g><path class="b" d="M18,1.928H5.642A3.08,3.08,0,0,0,2.571,5V17.357a3.08,3.08,0,0,0,3.071,3.071H18a3.08,3.08,0,0,0,3.071-3.071V5A3.08,3.08,0,0,0,18,1.928ZM8.493,10.022h6.656a3.523,3.523,0,1,1-6.656,0Zm10.265,0v6.937A1.16,1.16,0,0,1,17.6,18.116H6.039a1.16,1.16,0,0,1-1.156-1.156V10.022H6.692a5.257,5.257,0,1,0,10.258,0Zm0-4.048a.58.58,0,0,1-.578.578H17.024a.58.58,0,0,1-.578-.578V4.819a.58.58,0,0,1,.578-.578H18.18a.58.58,0,0,1,.578.578Z" transform="translate(1368.429 874.072)"/></g></svg>