<svg xmlns="http://www.w3.org/2000/svg" width="22" height="22" viewBox="0 0 22 22"><defs><style>.a{fill:#8a8a8a;}</style></defs><path class="a" d="M20.918,1.928H6.223A3.663,3.663,0,0,0,2.571,5.58v14.7a3.663,3.663,0,0,0,3.652,3.652h14.7a3.663,3.663,0,0,0,3.652-3.652V5.58A3.663,3.663,0,0,0,20.918,1.928ZM9.613,11.553h7.915a4.189,4.189,0,1,1-7.915,0Zm12.207,0V19.8a1.379,1.379,0,0,1-1.375,1.375H6.7A1.379,1.379,0,0,1,5.321,19.8v-8.25H7.471a6.252,6.252,0,1,0,12.2,0Zm0-4.814a.69.69,0,0,1-.688.688H19.758a.69.69,0,0,1-.687-.688V5.366a.69.69,0,0,1,.688-.687h1.375a.69.69,0,0,1,.688.688Z" transform="translate(-2.571 -1.928)"/></svg>