<svg xmlns="http://www.w3.org/2000/svg" width="40" height="40" viewBox="0 0 40 40"><defs><style>.a{fill:#fff;stroke:#b2b2b2;stroke-width:1.1px;}.b{fill:#b2b2b2;}.c{stroke:none;}.d{fill:none;}</style></defs><g transform="translate(-1464 -865)"><g class="a" transform="translate(1464 865)"><circle class="c" cx="20" cy="20" r="20"/><circle class="d" cx="20" cy="20" r="19.45"/></g><path class="b" d="M3.876,17.318H.286V5.756h3.59ZM2.079,4.179a2.089,2.089,0,1,1,2.079-2.1A2.1,2.1,0,0,1,2.079,4.179ZM17.314,17.318H13.731V11.69c0-1.341-.027-3.062-1.867-3.062-1.867,0-2.153,1.457-2.153,2.965v5.725H6.125V5.756H9.569V7.333h.05a3.773,3.773,0,0,1,3.4-1.867c3.634,0,4.3,2.393,4.3,5.5v6.351Z" transform="translate(1476 875.999)"/></g></svg>