<svg id="Layer_1" data-name="Layer 1" xmlns="http://www.w3.org/2000/svg" xmlns:xlink="http://www.w3.org/1999/xlink" viewBox="0 0 269 92"><defs><style>.cls-1{fill:url(#linear-gradient);}.cls-2{fill:url(#linear-gradient-2);}</style><linearGradient id="linear-gradient" x1="46.37" y1="43.36" x2="70.97" y2="82.74" gradientUnits="userSpaceOnUse"><stop offset="0.21" stop-color="#f33"/><stop offset="0.84" stop-color="#f33"/></linearGradient><linearGradient id="linear-gradient-2" x1="26.67" y1="12.23" x2="51.35" y2="49.4" gradientUnits="userSpaceOnUse"><stop offset="0.11" stop-color="#f93"/><stop offset="0.64" stop-color="#f93"/></linearGradient></defs><title>NF Logo</title><path class="cls-1" d="M65.17,33.18l-1.38,7.11h8.48s2.6.3,1.63,4.47c-1,4.39-4.67,3.79-4.67,3.79l-7,0s-2.23,10-3.33,13.48c-.61,2.9-7.28,6.5-11.09.2-3.84-7.57-9-18.52-9-18.52L34.9,59.54s-.86,5.58-6.59,6.18c-1.92.2-5.87.22-9.6.18A35.82,35.82,0,0,0,81.85,33.36Z"/><path class="cls-2" d="M23.92,57.66,30,32.75s1.93-9.24,8.37-7.43c4,1.12,6.28,7.54,6.28,7.54L51.34,51l3.55-19.88a7.37,7.37,0,0,1,6.85-5.66c3.35-.24,10.67-.12,16.09,0A35.83,35.83,0,0,0,14.45,57.66Z"/><path d="M117,60.26a4,4,0,0,1-1.36-.22,3,3,0,0,1-1.06-.68,5.49,5.49,0,0,1-.89-1.11c-.28-.44-.55-.89-.82-1.35l-9.42-16.84-.38.07-1.83,16.95a3.75,3.75,0,0,1-1,2.38,2.72,2.72,0,0,1-2,.8,2.13,2.13,0,0,1-1.79-.79A3.2,3.2,0,0,1,96,57.12l2.41-22.31A6.44,6.44,0,0,1,99,32.65a3.82,3.82,0,0,1,3.23-1.91,3,3,0,0,1,1.27.24,2.81,2.81,0,0,1,.87.64,5.88,5.88,0,0,1,.74,1.09c.25.46.52.94.78,1.44l9.69,17.05.37-.07,1.86-17.21a4,4,0,0,1,1-2.4,2.61,2.61,0,0,1,1.94-.78,2.1,2.1,0,0,1,1.79.77,3.23,3.23,0,0,1,.43,2.37l-2.45,22.75C120.16,59.07,119,60.26,117,60.26Z"/><path d="M129.66,60.26a2.35,2.35,0,0,1-1.92-.82,3.29,3.29,0,0,1-.5-2.53l2.4-22.26a4.93,4.93,0,0,1,.58-2,2.58,2.58,0,0,1,1.23-1.08,5.16,5.16,0,0,1,2.05-.35h14.13a2.69,2.69,0,0,1,1.92.56,1.7,1.7,0,0,1,.47,1.47,2.16,2.16,0,0,1-.8,1.51,3.26,3.26,0,0,1-2.08.58h-11.8l-.2.17-.8,7.4.2.23h9.87a2.59,2.59,0,0,1,1.84.54,1.65,1.65,0,0,1,.45,1.44,2.1,2.1,0,0,1-.79,1.47,3.17,3.17,0,0,1-2,.54h-9.87l-.2.18-1,9.53a4,4,0,0,1-1.06,2.57A2.93,2.93,0,0,1,129.66,60.26Z"/><path d="M160.5,59.76a3.39,3.39,0,0,1-2.57-.78,3.29,3.29,0,0,1-.51-2.59l2.41-22.27a4,4,0,0,1,1-2.54,2.89,2.89,0,0,1,2.11-.84,2.4,2.4,0,0,1,1.94.81,3.33,3.33,0,0,1,.5,2.52l-2.27,21.06.2.22H175.5a2.78,2.78,0,0,1,2,.63,1.79,1.79,0,0,1,.53,1.57,2.22,2.22,0,0,1-.88,1.59,3.45,3.45,0,0,1-2.18.62Z"/><path d="M198.84,60.26a2,2,0,0,1-1.45-.72,10,10,0,0,1-1.48-2.22l-.29-.07a19.57,19.57,0,0,1-4.07,2.26,11.6,11.6,0,0,1-4.19.75,7.32,7.32,0,0,1-3.54-.8,5,5,0,0,1-2.15-2.13,5.05,5.05,0,0,1-.52-2.93,5.82,5.82,0,0,1,1.78-3.65,8.11,8.11,0,0,1,4.06-2l2.66-.53c1.42-.27,2.64-.53,3.65-.76s2.13-.51,3.32-.84l.15-.18a5.4,5.4,0,0,0-.58-3.25c-.49-.73-1.56-1.09-3.28-1.09a7.41,7.41,0,0,0-3.31.6,6.15,6.15,0,0,0-2.07,1.77c-.59.77-1,1.26-1.21,1.49a1.82,1.82,0,0,1-1.24.31,2,2,0,0,1-1.41-.53,1.5,1.5,0,0,1-.45-1.32,4.85,4.85,0,0,1,1.28-2.65,8.39,8.39,0,0,1,3.37-2.16,15.33,15.33,0,0,1,5.45-.85,14.73,14.73,0,0,1,5.54.82,4.33,4.33,0,0,1,2.54,2.54,10.74,10.74,0,0,1,.33,4.72c-.14,1.26-.25,2.33-.36,3.22s-.21,1.86-.34,2.93a10.16,10.16,0,0,0,.17,3.23,8.89,8.89,0,0,1,.28,2.06,2.06,2.06,0,0,1-.88,1.38A2.85,2.85,0,0,1,198.84,60.26Zm-2.69-10.83a30,30,0,0,1-3.59.92c-1.57.32-2.68.56-3.29.71a5,5,0,0,0-1.86.92,2.73,2.73,0,0,0-1.09,2,2.67,2.67,0,0,0,.78,2.25,3.44,3.44,0,0,0,2.54.91,7.29,7.29,0,0,0,3.18-.72,5.86,5.86,0,0,0,2.3-1.87,8.88,8.88,0,0,0,1.21-4.12l.09-.76Z"/><path d="M217.69,60.26a8.83,8.83,0,0,1-2.3-.29,6,6,0,0,1-1.77-.76,6.84,6.84,0,0,1-1.2-1,16.09,16.09,0,0,1-1.28-1.52l-.36.1-.06.54a3.36,3.36,0,0,1-.93,2.17,2.59,2.59,0,0,1-1.85.73,1.9,1.9,0,0,1-1.62-.71,3,3,0,0,1-.41-2.15l2.54-23.52a4.13,4.13,0,0,1,.9-2.36,2.34,2.34,0,0,1,1.83-.78,2,2,0,0,1,1.71.72,3,3,0,0,1,.4,2.14l-.89,8.23.33.17a14.77,14.77,0,0,1,3.39-2.39,9.06,9.06,0,0,1,4-.82A8.16,8.16,0,0,1,224.68,40a7.08,7.08,0,0,1,2.74,3.6,12.66,12.66,0,0,1,.51,5.64,16.17,16.17,0,0,1-1.11,4.43,11.91,11.91,0,0,1-2.19,3.48,9.52,9.52,0,0,1-3.13,2.27A9,9,0,0,1,217.69,60.26Zm.54-17.88a5.49,5.49,0,0,0-3,.87,6.74,6.74,0,0,0-2.27,2.5,10.24,10.24,0,0,0-1.14,3.85,7.06,7.06,0,0,0,1,5.09,4.65,4.65,0,0,0,3.92,1.8,5.36,5.36,0,0,0,3.92-1.82,8.67,8.67,0,0,0,2.1-5.18,9.59,9.59,0,0,0-.23-3.75A4.83,4.83,0,0,0,221,43.26,4.29,4.29,0,0,0,218.23,42.38Z"/><path d="M239.41,60.26a12.25,12.25,0,0,1-4.91-.88,6.19,6.19,0,0,1-2.8-2.14A3.85,3.85,0,0,1,231,54.7a2.09,2.09,0,0,1,.74-1.39,2.31,2.31,0,0,1,1.58-.59,1.56,1.56,0,0,1,1.14.36,3.61,3.61,0,0,1,.72,1.11,5.36,5.36,0,0,0,1.87,2.23,6.06,6.06,0,0,0,3.25.74,5.3,5.3,0,0,0,2.9-.75,2.49,2.49,0,0,0,1.33-1.79,2.2,2.2,0,0,0-1-2.27A13,13,0,0,0,240,51.09a28.14,28.14,0,0,1-4.45-1.44A6.42,6.42,0,0,1,233,47.71a4,4,0,0,1-.7-2.92,5.82,5.82,0,0,1,1.28-2.95,7.66,7.66,0,0,1,3.09-2.24,11.86,11.86,0,0,1,4.66-.84,15.08,15.08,0,0,1,3.75.42,8.52,8.52,0,0,1,2.66,1.14,4.87,4.87,0,0,1,1.5,1.55,2.66,2.66,0,0,1,.38,1.62,2,2,0,0,1-.73,1.38,2.58,2.58,0,0,1-1.74.55,1.82,1.82,0,0,1-1.26-.43,7.73,7.73,0,0,1-1.18-1.38,4.3,4.3,0,0,0-1.4-1.32,4.64,4.64,0,0,0-2.35-.5,5.18,5.18,0,0,0-2.65.65,2.25,2.25,0,0,0-1.25,1.7,1.66,1.66,0,0,0,.65,1.56,5.43,5.43,0,0,0,1.93.94c.79.23,1.9.53,3.3.87a16.55,16.55,0,0,1,4,1.44,5.88,5.88,0,0,1,2.18,1.93,3.87,3.87,0,0,1,.52,2.51,6.9,6.9,0,0,1-1.48,3.71,7.64,7.64,0,0,1-3.45,2.35A15.79,15.79,0,0,1,239.41,60.26Z"/></svg>