<svg xmlns="http://www.w3.org/2000/svg" width="40" height="40" viewBox="0 0 40 40"><defs><style>.a{fill:#fff;stroke:#b2b2b2;stroke-width:1.1px;}.b{fill:#b2b2b2;}.c{stroke:none;}.d{fill:none;}</style></defs><g transform="translate(-1516 -865)"><g class="a" transform="translate(1516 865)"><circle class="c" cx="20" cy="20" r="20"/><circle class="d" cx="20" cy="20" r="19.45"/></g><path class="b" d="M17.242,5.848l-2.609,12.3c-.2.868-.71,1.085-1.44.675L9.217,15.9,7.3,17.744a1,1,0,0,1-.8.39l.286-4.049,7.368-6.658c.32-.286-.069-.444-.5-.158L4.547,13,.626,11.777c-.853-.266-.868-.853.178-1.262L16.142,4.605c.71-.266,1.332.158,1.1,1.243Z" transform="translate(1526.999 873.472)"/></g></svg>