<svg xmlns="http://www.w3.org/2000/svg" width="20" height="20" viewBox="0 0 20 20"><defs><style>.a{fill:#fff;}</style></defs><g transform="translate(-0.006)"><g transform="translate(0.006)"><path class="a" d="M15.211,57.448a1.4,1.4,0,0,0-2.118,0c-.5.491-.991.982-1.477,1.482a.292.292,0,0,1-.408.075c-.32-.175-.662-.316-.97-.508a15.364,15.364,0,0,1-3.7-3.371A8.775,8.775,0,0,1,5.206,53a.3.3,0,0,1,.075-.391c.5-.479.978-.97,1.465-1.461a1.407,1.407,0,0,0,0-2.168c-.387-.391-.774-.774-1.161-1.165s-.795-.8-1.2-1.2a1.41,1.41,0,0,0-2.118,0c-.5.491-.978.995-1.486,1.477A2.412,2.412,0,0,0,.02,49.723a6.894,6.894,0,0,0,.533,2.967,18.032,18.032,0,0,0,3.2,5.331,19.805,19.805,0,0,0,6.559,5.132,9.486,9.486,0,0,0,3.633,1.057,2.663,2.663,0,0,0,2.285-.87c.425-.474.9-.907,1.353-1.361a1.416,1.416,0,0,0,.008-2.156Q16.405,58.632,15.211,57.448Z" transform="translate(-0.006 -44.217)"/><path class="a" d="M242.365,101.918l1.536-.262A6.893,6.893,0,0,0,238.07,96l-.216,1.544a5.328,5.328,0,0,1,4.511,4.374Z" transform="translate(-227.955 -92.005)"/><path class="a" d="M249.463,3.238A11.324,11.324,0,0,0,242.97,0l-.216,1.544a9.881,9.881,0,0,1,8.361,8.1l1.536-.262A11.407,11.407,0,0,0,249.463,3.238Z" transform="translate(-232.651)"/></g></g></svg>