<svg xmlns="http://www.w3.org/2000/svg" width="40" height="40" viewBox="0 0 40 40"><defs><style>.a{fill:#fff;stroke:#b2b2b2;stroke-width:1.1px;}.b{fill:#b2b2b2;}.c{stroke:none;}.d{fill:none;}</style></defs><g transform="translate(-1412 -865)"><g class="a" transform="translate(1412 865)"><circle class="c" cx="20" cy="20" r="20"/><circle class="d" cx="20" cy="20" r="19.45"/></g><path class="b" d="M16.244,7.045c.011.161.011.322.011.483A10.485,10.485,0,0,1,5.7,18.085,10.486,10.486,0,0,1,0,16.42a7.677,7.677,0,0,0,.9.046A7.431,7.431,0,0,0,5.5,14.88a3.717,3.717,0,0,1-3.469-2.573,4.68,4.68,0,0,0,.7.057,3.925,3.925,0,0,0,.976-.126A3.711,3.711,0,0,1,.735,8.6V8.55a3.737,3.737,0,0,0,1.677.471A3.716,3.716,0,0,1,1.264,4.059,10.547,10.547,0,0,0,8.915,7.941a4.189,4.189,0,0,1-.092-.85,3.714,3.714,0,0,1,6.422-2.539,7.306,7.306,0,0,0,2.355-.9A3.7,3.7,0,0,1,15.968,5.7a7.439,7.439,0,0,0,2.137-.574A7.976,7.976,0,0,1,16.244,7.045Z" transform="translate(1424 874.619)"/></g></svg>