<svg xmlns="http://www.w3.org/2000/svg" width="25.733" height="20.9" viewBox="0 0 25.733 20.9"><defs><style>.a{fill:#8a8a8a;}</style></defs><path class="a" d="M23.088,8.589c.016.229.016.457.016.686A14.9,14.9,0,0,1,8.1,24.281,14.9,14.9,0,0,1,0,21.913a10.911,10.911,0,0,0,1.274.065,10.562,10.562,0,0,0,6.548-2.253A5.283,5.283,0,0,1,2.89,16.068a6.651,6.651,0,0,0,1,.082,5.578,5.578,0,0,0,1.388-.18,5.275,5.275,0,0,1-4.229-5.176v-.065a5.311,5.311,0,0,0,2.384.669A5.282,5.282,0,0,1,1.8,4.344,14.991,14.991,0,0,0,12.671,9.863a5.954,5.954,0,0,1-.131-1.208,5.279,5.279,0,0,1,9.127-3.609,10.384,10.384,0,0,0,3.347-1.274A5.26,5.26,0,0,1,22.7,6.679a10.573,10.573,0,0,0,3.037-.816A11.337,11.337,0,0,1,23.088,8.589Z" transform="translate(0 -3.381)"/></svg>